<?xml version="1.0" standalone="no"?>
<!DOCTYPE svg PUBLIC "-//W3C//DTD SVG 20010904//EN"
 "http://www.w3.org/TR/2001/REC-SVG-20010904/DTD/svg10.dtd">
<svg version="1.0" xmlns="http://www.w3.org/2000/svg"
 width="512.000000pt" height="512.000000pt" viewBox="0 0 512.000000 512.000000"
 preserveAspectRatio="xMidYMid meet">
<metadata>
Created by potrace 1.11, written by Peter Selinger 2001-2013
</metadata>
<g transform="translate(0.000000,512.000000) scale(0.100000,-0.100000)"
fill="#000000" stroke="none">
<path d="M3045 5114 c-162 -41 -254 -159 -242 -312 3 -37 8 -76 12 -88 5 -17
-4 -26 -60 -60 -209 -122 -305 -374 -227 -596 l20 -56 -57 -21 c-133 -48 -262
-165 -326 -293 -116 -237 -72 -503 114 -689 125 -125 284 -187 452 -176 l76 5
104 -104 104 -104 58 0 c54 0 62 -3 93 -34 31 -31 34 -39 34 -92 0 -55 2 -61
41 -100 l42 -42 -20 -29 c-58 -82 -67 -112 -64 -231 l2 -112 -30 -30 -29 -30
-135 0 -135 0 -25 -29 c-28 -33 -62 -102 -72 -143 l-7 -28 187 0 187 0 29 -29
c28 -28 29 -33 29 -121 0 -88 -1 -93 -29 -121 -20 -19 -40 -29 -60 -29 l-31 0
0 -61 c0 -65 -10 -94 -44 -121 -18 -15 -44 -18 -178 -18 l-158 0 0 -150 0
-150 411 -2 411 -3 24 -65 c30 -79 48 -100 86 -100 48 0 64 15 99 95 l33 75
377 0 378 0 54 68 c122 152 238 346 325 542 56 126 127 332 137 395 7 40 6 41
-52 84 -32 24 -79 54 -104 67 l-46 23 -5 79 c-11 193 -152 344 -351 375 -110
17 -231 -17 -316 -89 l-32 -27 -44 32 c-54 39 -134 76 -198 92 l-49 12 129
129 128 130 52 -6 c171 -19 356 65 456 206 148 209 124 462 -60 646 l-73 73
24 32 c14 18 37 60 52 93 112 253 30 560 -195 724 -46 34 -61 50 -61 70 -1 64
-80 174 -152 211 -53 27 -128 40 -180 30 -42 -8 -44 -7 -94 45 -104 107 -218
156 -364 156 -63 0 -103 -6 -156 -24 l-71 -23 -46 22 c-44 23 -142 37 -182 27z
m842 -2178 l53 -41 -166 -166 c-133 -133 -173 -167 -204 -176 l-40 -10 0 242
0 242 58 12 c31 7 82 22 112 34 l54 23 40 -59 c22 -33 63 -78 93 -101z m-589
108 l72 -18 0 -270 0 -271 -199 199 -199 199 56 37 c32 20 80 62 107 93 55 61
47 60 163 31z"/>
<path d="M164 3390 c-29 -9 -32 -16 -62 -122 -220 -785 -71 -1596 411 -2240
l80 -108 129 0 128 0 0 150 0 150 -154 0 c-139 0 -156 2 -179 20 -30 23 -47
74 -47 138 0 35 -3 42 -20 42 -33 0 -71 23 -86 51 -17 34 -19 158 -2 194 26
57 -6 55 918 55 467 0 850 3 850 6 0 12 -43 78 -88 137 l-45 57 -784 0 c-851
0 -825 -2 -851 55 -15 34 -15 156 0 190 25 56 7 55 773 55 l706 0 15 35 c29
71 91 65 -706 65 -783 0 -762 -1 -788 55 -17 36 -15 160 2 194 8 15 26 32 41
39 19 9 211 12 755 12 l730 0 0 21 c0 39 -32 144 -66 219 -74 160 -219 306
-379 381 -109 51 -182 69 -305 76 -175 9 -339 -35 -483 -132 l-66 -44 -24 53
c-55 120 -168 196 -300 202 -40 2 -86 -1 -103 -6z"/>
<path d="M871 2514 c-12 -15 -21 -34 -21 -44 0 -34 39 -70 75 -70 36 0 75 36
75 70 0 34 -39 70 -75 70 -24 0 -39 -7 -54 -26z"/>
<path d="M2580 2520 c-44 -44 -10 -120 54 -120 19 0 40 8 49 18 23 25 22 85
-1 105 -25 23 -78 21 -102 -3z"/>
<path d="M2550 2270 l0 -50 75 0 75 0 0 50 0 50 -75 0 -75 0 0 -50z"/>
<path d="M871 2114 c-12 -15 -21 -34 -21 -44 0 -34 39 -70 75 -70 36 0 75 36
75 70 0 34 -39 70 -75 70 -24 0 -39 -7 -54 -26z"/>
<path d="M2580 2120 c-44 -44 -10 -120 54 -120 19 0 40 8 49 18 23 25 22 85
-1 105 -25 23 -78 21 -102 -3z"/>
<path d="M2550 1820 l0 -100 75 0 75 0 0 100 0 100 -75 0 -75 0 0 -100z"/>
<path d="M1000 1070 l0 -150 499 0 499 0 51 67 c47 61 99 155 116 211 l6 22
-585 0 -586 0 0 -150z"/>
<path d="M1130 670 c-28 -28 -25 -69 13 -172 37 -100 39 -102 201 -189 55 -29
101 -48 106 -43 17 19 150 322 150 343 0 28 -43 71 -70 71 -44 0 -62 -23 -124
-153 l-62 -132 -48 130 c-26 72 -56 138 -68 148 -27 23 -73 22 -98 -3z"/>
<path d="M2435 482 c-28 -14 -40 -50 -31 -88 12 -47 52 -54 296 -54 244 0 284
7 296 54 10 40 -3 74 -35 91 -39 19 -488 17 -526 -3z"/>
<path d="M3230 470 c-30 -30 -24 -71 29 -215 59 -156 45 -152 238 -76 l132 52
31 67 c45 96 48 125 17 156 -28 28 -56 33 -88 15 -12 -6 -47 -66 -83 -142
l-62 -132 -48 130 c-26 72 -56 138 -68 148 -27 23 -73 22 -98 -3z"/>
</g>
</svg>
